<mxfile host="app.diagrams.net" modified="2020-08-26T08:26:19.975Z" agent="5.0 (Windows NT 10.0; WOW64) AppleWebKit/537.36 (KHTML, like Gecko) Chrome/84.0.4147.135 Safari/537.36" etag="SvhaDb9qPGy09esoVCMa" version="13.6.5" type="github">
  <diagram id="C5RBs43oDa-KdzZeNtuy" name="Page-1">
    <mxGraphModel dx="1149" dy="661" grid="1" gridSize="10" guides="1" tooltips="1" connect="1" arrows="1" fold="1" page="1" pageScale="1" pageWidth="827" pageHeight="1169" math="0" shadow="0">
      <root>
        <mxCell id="WIyWlLk6GJQsqaUBKTNV-0" />
        <mxCell id="WIyWlLk6GJQsqaUBKTNV-1" parent="WIyWlLk6GJQsqaUBKTNV-0" />
        <mxCell id="WIyWlLk6GJQsqaUBKTNV-3" value="&lt;font face=&quot;Comic Sans MS&quot; style=&quot;font-size: 19px ; background-color: rgb(230 , 208 , 222)&quot;&gt;MULAI&lt;/font&gt;" style="rounded=1;whiteSpace=wrap;html=1;fontSize=12;glass=0;strokeWidth=1;shadow=0;fillColor=#e1d5e7;strokeColor=none;" parent="WIyWlLk6GJQsqaUBKTNV-1" vertex="1">
          <mxGeometry x="310" y="60" width="120" height="40" as="geometry" />
        </mxCell>
        <mxCell id="wIao_gP6j7fF57WBtlCq-1" value="&lt;font face=&quot;Comic Sans MS&quot; style=&quot;background-color: rgb(230 , 208 , 222) ; font-size: 13px&quot;&gt;Membaca bismillah&lt;/font&gt;" style="shape=parallelogram;perimeter=parallelogramPerimeter;whiteSpace=wrap;html=1;fixedSize=1;fillColor=#e1d5e7;strokeColor=none;" vertex="1" parent="WIyWlLk6GJQsqaUBKTNV-1">
          <mxGeometry x="120" y="170" width="200" height="60" as="geometry" />
        </mxCell>
        <mxCell id="wIao_gP6j7fF57WBtlCq-7" style="edgeStyle=orthogonalEdgeStyle;rounded=0;orthogonalLoop=1;jettySize=auto;html=1;strokeColor=#788AA3;fillColor=#B2C9AB;fontColor=#46495D;exitX=0.5;exitY=1;exitDx=0;exitDy=0;" edge="1" parent="WIyWlLk6GJQsqaUBKTNV-1" source="WIyWlLk6GJQsqaUBKTNV-3">
          <mxGeometry relative="1" as="geometry">
            <mxPoint x="220" y="170" as="targetPoint" />
            <mxPoint x="220" y="150" as="sourcePoint" />
            <Array as="points">
              <mxPoint x="220" y="125" />
            </Array>
          </mxGeometry>
        </mxCell>
        <mxCell id="wIao_gP6j7fF57WBtlCq-44" style="edgeStyle=orthogonalEdgeStyle;rounded=0;orthogonalLoop=1;jettySize=auto;html=1;entryX=0.45;entryY=1;entryDx=0;entryDy=0;entryPerimeter=0;strokeColor=#788AA3;fillColor=#B2C9AB;fontColor=#46495D;" edge="1" parent="WIyWlLk6GJQsqaUBKTNV-1" source="wIao_gP6j7fF57WBtlCq-8" target="wIao_gP6j7fF57WBtlCq-41">
          <mxGeometry relative="1" as="geometry" />
        </mxCell>
        <mxCell id="wIao_gP6j7fF57WBtlCq-8" value="&lt;font face=&quot;Comic Sans MS&quot; style=&quot;font-size: 13px&quot;&gt;Matikan keran&lt;/font&gt;" style="rounded=0;whiteSpace=wrap;html=1;fillColor=#e1d5e7;strokeColor=none;" vertex="1" parent="WIyWlLk6GJQsqaUBKTNV-1">
          <mxGeometry x="580" y="380" width="120" height="60" as="geometry" />
        </mxCell>
        <mxCell id="wIao_gP6j7fF57WBtlCq-9" value="&lt;font face=&quot;Comic Sans MS&quot; style=&quot;font-size: 13px&quot;&gt;Membersihkan kedua kaki dimulai dari yang kanan sebanyak 3 kali&lt;/font&gt;" style="rounded=0;whiteSpace=wrap;html=1;fillColor=#e1d5e7;strokeColor=none;" vertex="1" parent="WIyWlLk6GJQsqaUBKTNV-1">
          <mxGeometry x="550" y="500" width="170" height="60" as="geometry" />
        </mxCell>
        <mxCell id="wIao_gP6j7fF57WBtlCq-10" value="&lt;font face=&quot;Comic Sans MS&quot; style=&quot;font-size: 13px&quot;&gt;Membersihkan daun telinga sebanyak 3 kali&lt;/font&gt;" style="rounded=0;whiteSpace=wrap;html=1;fillColor=#e1d5e7;strokeColor=none;" vertex="1" parent="WIyWlLk6GJQsqaUBKTNV-1">
          <mxGeometry x="580" y="620" width="120" height="60" as="geometry" />
        </mxCell>
        <mxCell id="wIao_gP6j7fF57WBtlCq-11" value="&lt;font face=&quot;Comic Sans MS&quot; style=&quot;font-size: 13px&quot;&gt;Mengusap kepala bagian jidat sebanyak 3 kali&lt;/font&gt;" style="rounded=0;whiteSpace=wrap;html=1;fillColor=#e1d5e7;strokeColor=none;" vertex="1" parent="WIyWlLk6GJQsqaUBKTNV-1">
          <mxGeometry x="460" y="710" width="120" height="60" as="geometry" />
        </mxCell>
        <mxCell id="wIao_gP6j7fF57WBtlCq-12" value="&lt;font style=&quot;font-size: 13px&quot; face=&quot;Comic Sans MS&quot;&gt;Membasuh kedua tangan sampai ke siku dimulai dari yang kanan sebanyak 3 kali&lt;/font&gt;" style="rounded=0;whiteSpace=wrap;html=1;fillColor=#e1d5e7;strokeColor=none;" vertex="1" parent="WIyWlLk6GJQsqaUBKTNV-1">
          <mxGeometry x="200" y="710" width="150" height="60" as="geometry" />
        </mxCell>
        <mxCell id="wIao_gP6j7fF57WBtlCq-13" value="&lt;font face=&quot;Comic Sans MS&quot; style=&quot;font-size: 13px&quot;&gt;Membaca niat diikuti membasuh muka sebanyak 3 kali&lt;/font&gt;" style="rounded=0;whiteSpace=wrap;html=1;fillColor=#e1d5e7;strokeColor=none;" vertex="1" parent="WIyWlLk6GJQsqaUBKTNV-1">
          <mxGeometry x="360" y="620" width="120" height="60" as="geometry" />
        </mxCell>
        <mxCell id="wIao_gP6j7fF57WBtlCq-37" style="edgeStyle=orthogonalEdgeStyle;rounded=0;orthogonalLoop=1;jettySize=auto;html=1;entryX=0.5;entryY=0;entryDx=0;entryDy=0;strokeColor=#788AA3;fillColor=#B2C9AB;fontColor=#46495D;" edge="1" parent="WIyWlLk6GJQsqaUBKTNV-1" source="wIao_gP6j7fF57WBtlCq-14" target="wIao_gP6j7fF57WBtlCq-13">
          <mxGeometry relative="1" as="geometry" />
        </mxCell>
        <mxCell id="wIao_gP6j7fF57WBtlCq-14" value="&lt;font style=&quot;font-size: 13px&quot; face=&quot;Comic Sans MS&quot;&gt;Membersihkan hidung sebanyak 3 kali&lt;/font&gt;" style="rounded=0;whiteSpace=wrap;html=1;fillColor=#e1d5e7;strokeColor=none;" vertex="1" parent="WIyWlLk6GJQsqaUBKTNV-1">
          <mxGeometry x="360" y="500" width="120" height="60" as="geometry" />
        </mxCell>
        <mxCell id="wIao_gP6j7fF57WBtlCq-36" style="edgeStyle=orthogonalEdgeStyle;rounded=0;orthogonalLoop=1;jettySize=auto;html=1;entryX=0;entryY=0.5;entryDx=0;entryDy=0;strokeColor=#788AA3;fillColor=#B2C9AB;fontColor=#46495D;" edge="1" parent="WIyWlLk6GJQsqaUBKTNV-1" source="wIao_gP6j7fF57WBtlCq-15" target="wIao_gP6j7fF57WBtlCq-14">
          <mxGeometry relative="1" as="geometry" />
        </mxCell>
        <mxCell id="wIao_gP6j7fF57WBtlCq-15" value="&lt;font face=&quot;Comic Sans MS&quot; style=&quot;font-size: 13px&quot;&gt;Kumur-kumur sebanyak 3 kali&lt;/font&gt;" style="rounded=0;whiteSpace=wrap;html=1;fillColor=#e1d5e7;strokeColor=none;" vertex="1" parent="WIyWlLk6GJQsqaUBKTNV-1">
          <mxGeometry x="160" y="500" width="120" height="60" as="geometry" />
        </mxCell>
        <mxCell id="wIao_gP6j7fF57WBtlCq-16" value="&lt;font face=&quot;Comic Sans MS&quot; style=&quot;font-size: 13px&quot;&gt;Membasuh kedua&amp;nbsp;&lt;br&gt;telapak tangan&lt;/font&gt;" style="rounded=0;whiteSpace=wrap;html=1;fillColor=#e1d5e7;strokeColor=none;" vertex="1" parent="WIyWlLk6GJQsqaUBKTNV-1">
          <mxGeometry x="160" y="390" width="120" height="60" as="geometry" />
        </mxCell>
        <mxCell id="wIao_gP6j7fF57WBtlCq-17" value="&lt;font face=&quot;Comic Sans MS&quot; style=&quot;font-size: 13px&quot;&gt;Menghidupkan keran&lt;/font&gt;" style="rounded=0;whiteSpace=wrap;html=1;fillColor=#e1d5e7;strokeColor=none;" vertex="1" parent="WIyWlLk6GJQsqaUBKTNV-1">
          <mxGeometry x="160" y="280" width="120" height="60" as="geometry" />
        </mxCell>
        <mxCell id="wIao_gP6j7fF57WBtlCq-21" style="edgeStyle=orthogonalEdgeStyle;rounded=0;orthogonalLoop=1;jettySize=auto;html=1;strokeColor=#788AA3;fillColor=#B2C9AB;fontColor=#46495D;exitX=0.5;exitY=1;exitDx=0;exitDy=0;" edge="1" parent="WIyWlLk6GJQsqaUBKTNV-1">
          <mxGeometry relative="1" as="geometry">
            <mxPoint x="219.5" y="390" as="targetPoint" />
            <mxPoint x="219.5" y="340" as="sourcePoint" />
            <Array as="points">
              <mxPoint x="220" y="360" />
              <mxPoint x="220" y="360" />
            </Array>
          </mxGeometry>
        </mxCell>
        <mxCell id="wIao_gP6j7fF57WBtlCq-22" style="edgeStyle=orthogonalEdgeStyle;rounded=0;orthogonalLoop=1;jettySize=auto;html=1;strokeColor=#788AA3;fillColor=#B2C9AB;fontColor=#46495D;entryX=0;entryY=0.5;entryDx=0;entryDy=0;" edge="1" parent="WIyWlLk6GJQsqaUBKTNV-1" target="wIao_gP6j7fF57WBtlCq-11">
          <mxGeometry relative="1" as="geometry">
            <mxPoint x="440" y="739.5" as="targetPoint" />
            <mxPoint x="350" y="739.5" as="sourcePoint" />
            <Array as="points" />
          </mxGeometry>
        </mxCell>
        <mxCell id="wIao_gP6j7fF57WBtlCq-24" style="edgeStyle=orthogonalEdgeStyle;rounded=0;orthogonalLoop=1;jettySize=auto;html=1;strokeColor=#788AA3;fillColor=#B2C9AB;fontColor=#46495D;entryX=0.5;entryY=0;entryDx=0;entryDy=0;" edge="1" parent="WIyWlLk6GJQsqaUBKTNV-1" target="wIao_gP6j7fF57WBtlCq-12">
          <mxGeometry relative="1" as="geometry">
            <mxPoint x="284" y="700" as="targetPoint" />
            <mxPoint x="354" y="650" as="sourcePoint" />
            <Array as="points">
              <mxPoint x="290" y="650" />
            </Array>
          </mxGeometry>
        </mxCell>
        <mxCell id="wIao_gP6j7fF57WBtlCq-25" style="edgeStyle=orthogonalEdgeStyle;rounded=0;orthogonalLoop=1;jettySize=auto;html=1;strokeColor=#788AA3;fillColor=#B2C9AB;fontColor=#46495D;exitX=0.5;exitY=1;exitDx=0;exitDy=0;" edge="1" parent="WIyWlLk6GJQsqaUBKTNV-1">
          <mxGeometry relative="1" as="geometry">
            <mxPoint x="270" y="220" as="targetPoint" />
            <mxPoint x="270" y="170" as="sourcePoint" />
            <Array as="points">
              <mxPoint x="270" y="175" />
            </Array>
          </mxGeometry>
        </mxCell>
        <mxCell id="wIao_gP6j7fF57WBtlCq-27" style="edgeStyle=orthogonalEdgeStyle;rounded=0;orthogonalLoop=1;jettySize=auto;html=1;strokeColor=#788AA3;fillColor=#B2C9AB;fontColor=#46495D;exitX=0.5;exitY=1;exitDx=0;exitDy=0;" edge="1" parent="WIyWlLk6GJQsqaUBKTNV-1">
          <mxGeometry relative="1" as="geometry">
            <mxPoint x="219.5" y="280" as="targetPoint" />
            <mxPoint x="219.5" y="230" as="sourcePoint" />
            <Array as="points">
              <mxPoint x="219.5" y="235" />
            </Array>
          </mxGeometry>
        </mxCell>
        <mxCell id="wIao_gP6j7fF57WBtlCq-28" style="edgeStyle=orthogonalEdgeStyle;rounded=0;orthogonalLoop=1;jettySize=auto;html=1;strokeColor=#788AA3;fillColor=#B2C9AB;fontColor=#46495D;exitX=0.5;exitY=1;exitDx=0;exitDy=0;" edge="1" parent="WIyWlLk6GJQsqaUBKTNV-1">
          <mxGeometry relative="1" as="geometry">
            <mxPoint x="219.5" y="500" as="targetPoint" />
            <mxPoint x="219.5" y="450" as="sourcePoint" />
            <Array as="points">
              <mxPoint x="219.5" y="480" />
              <mxPoint x="219.5" y="480" />
            </Array>
          </mxGeometry>
        </mxCell>
        <mxCell id="wIao_gP6j7fF57WBtlCq-30" style="edgeStyle=orthogonalEdgeStyle;rounded=0;orthogonalLoop=1;jettySize=auto;html=1;strokeColor=#788AA3;fillColor=#B2C9AB;fontColor=#46495D;" edge="1" parent="WIyWlLk6GJQsqaUBKTNV-1">
          <mxGeometry relative="1" as="geometry">
            <mxPoint x="640" y="680" as="targetPoint" />
            <mxPoint x="580" y="740" as="sourcePoint" />
            <Array as="points">
              <mxPoint x="580" y="740" />
              <mxPoint x="640" y="740" />
            </Array>
          </mxGeometry>
        </mxCell>
        <mxCell id="wIao_gP6j7fF57WBtlCq-33" style="edgeStyle=orthogonalEdgeStyle;rounded=0;orthogonalLoop=1;jettySize=auto;html=1;strokeColor=#788AA3;fillColor=#B2C9AB;fontColor=#46495D;exitX=0.5;exitY=0;exitDx=0;exitDy=0;" edge="1" parent="WIyWlLk6GJQsqaUBKTNV-1" source="wIao_gP6j7fF57WBtlCq-10">
          <mxGeometry relative="1" as="geometry">
            <mxPoint x="640" y="560" as="targetPoint" />
            <mxPoint x="639.5" y="550" as="sourcePoint" />
            <Array as="points" />
          </mxGeometry>
        </mxCell>
        <mxCell id="wIao_gP6j7fF57WBtlCq-40" style="edgeStyle=orthogonalEdgeStyle;rounded=0;orthogonalLoop=1;jettySize=auto;html=1;strokeColor=#788AA3;fillColor=#B2C9AB;fontColor=#46495D;exitX=0.5;exitY=0;exitDx=0;exitDy=0;" edge="1" parent="WIyWlLk6GJQsqaUBKTNV-1">
          <mxGeometry relative="1" as="geometry">
            <mxPoint x="639.5" y="440" as="targetPoint" />
            <mxPoint x="639.5" y="500" as="sourcePoint" />
            <Array as="points" />
          </mxGeometry>
        </mxCell>
        <mxCell id="wIao_gP6j7fF57WBtlCq-45" style="edgeStyle=orthogonalEdgeStyle;rounded=0;orthogonalLoop=1;jettySize=auto;html=1;strokeColor=#788AA3;fillColor=#B2C9AB;fontColor=#46495D;" edge="1" parent="WIyWlLk6GJQsqaUBKTNV-1" source="wIao_gP6j7fF57WBtlCq-41" target="wIao_gP6j7fF57WBtlCq-42">
          <mxGeometry relative="1" as="geometry">
            <mxPoint x="590" y="110" as="targetPoint" />
          </mxGeometry>
        </mxCell>
        <mxCell id="wIao_gP6j7fF57WBtlCq-41" value="&lt;font face=&quot;Comic Sans MS&quot; size=&quot;1&quot;&gt;&lt;span style=&quot;background-color: rgb(230 , 208 , 222) ; font-size: 13px&quot;&gt;Mengucap alhamdulillah&lt;/span&gt;&lt;/font&gt;" style="shape=parallelogram;perimeter=parallelogramPerimeter;whiteSpace=wrap;html=1;fixedSize=1;fillColor=#e1d5e7;strokeColor=none;" vertex="1" parent="WIyWlLk6GJQsqaUBKTNV-1">
          <mxGeometry x="550" y="220" width="200" height="60" as="geometry" />
        </mxCell>
        <mxCell id="wIao_gP6j7fF57WBtlCq-42" value="&lt;font face=&quot;Comic Sans MS&quot;&gt;&lt;span style=&quot;font-size: 19px ; background-color: rgb(230 , 208 , 222)&quot;&gt;SELESAI&lt;/span&gt;&lt;/font&gt;" style="rounded=1;whiteSpace=wrap;html=1;fontSize=12;glass=0;strokeWidth=1;shadow=0;fillColor=#e1d5e7;strokeColor=none;" vertex="1" parent="WIyWlLk6GJQsqaUBKTNV-1">
          <mxGeometry x="520" y="60" width="120" height="40" as="geometry" />
        </mxCell>
      </root>
    </mxGraphModel>
  </diagram>
</mxfile>
